<svg width="86" height="18" viewBox="0 0 86 18" fill="none" xmlns="http://www.w3.org/2000/svg">
<path d="M20.7701 10.6284C20.7701 6.80616 18.1795 4.57471 14.7766 4.57471C11.0444 4.57471 8.54163 7.29226 8.54163 10.8935C8.54163 14.1192 10.5614 17.1902 15.04 17.1902C17.1947 17.1902 19.0177 16.4183 20.1666 15.6043C20.2232 15.5642 20.2395 15.4875 20.2054 15.4269L19.1095 13.4773C19.0699 13.4068 18.9788 13.3859 18.9114 13.4302C17.9026 14.0929 16.4361 14.5611 15.1718 14.5611C13.2105 14.5611 12.1406 13.5417 11.7285 12.1689C11.7027 12.083 11.768 11.9982 11.8573 11.9982H20.5426C20.6102 11.9982 20.6678 11.9485 20.6773 11.8811C20.7336 11.4779 20.7701 11.0715 20.7701 10.6284ZM14.7766 7.15964C16.3014 7.15964 17.3972 8.06425 17.729 9.51649C17.7481 9.60021 17.6835 9.67836 17.5981 9.67836H11.8542C11.7659 9.67836 11.7008 9.59519 11.7249 9.50976C12.1394 8.04186 13.2745 7.15964 14.7766 7.15964Z" fill="#E96D34"/>
<path d="M25.3141 16.81C25.333 16.8656 25.385 16.903 25.4434 16.903H27.9495C28.0074 16.903 28.0589 16.8664 28.0783 16.8116L30.5748 9.73126C30.6176 9.6097 30.7886 9.60922 30.8321 9.73064L33.3703 16.8122C33.3898 16.8667 33.4412 16.903 33.4988 16.903H36.0051C36.0638 16.903 36.1158 16.8654 36.1346 16.8096L40.0818 5.06535C40.1117 4.97631 40.0459 4.88403 39.9523 4.88403H36.9955C36.9351 4.88403 36.8818 4.92402 36.8645 4.98232L34.6857 12.3672C34.648 12.4947 34.4702 12.4994 34.426 12.3741L31.8106 4.97539C31.7912 4.92062 31.7396 4.88403 31.6818 4.88403H29.7023C29.6439 4.88403 29.5921 4.92124 29.5731 4.97668L27.0414 12.3712C26.9984 12.4971 26.8202 12.4939 26.7816 12.3666L24.5409 4.98131C24.5234 4.92352 24.4704 4.88403 24.4103 4.88403H21.4533C21.3596 4.88403 21.2937 4.97666 21.324 5.06578L25.3141 16.81Z" fill="#E96D34"/>
<path d="M46.8805 17.2345C50.7006 17.2345 53.2911 14.4065 53.2911 10.8936C53.2911 7.42493 50.7006 4.55273 46.8805 4.55273C43.0605 4.55273 40.47 7.42493 40.47 10.8936C40.47 14.4065 43.0605 17.2345 46.8805 17.2345ZM46.8805 14.3403C45.0145 14.3403 43.5655 12.8158 43.5655 10.8936C43.5655 8.99357 45.0145 7.46908 46.8805 7.46908C48.7466 7.46908 50.1956 8.99357 50.1956 10.8936C50.1956 12.8158 48.7466 14.3403 46.8805 14.3403Z" fill="#E96D34"/>
<path d="M72.5302 16.8718C72.556 16.9055 72.596 16.9252 72.6383 16.9252H76.0855C76.2 16.9252 76.2638 16.7922 76.1924 16.7022L70.8064 9.91119C70.7617 9.85481 70.768 9.77322 70.8208 9.72439L75.8036 5.12268C75.8953 5.03798 75.8357 4.88418 75.7112 4.88418H72.2082C72.1734 4.88418 72.14 4.89751 72.1146 4.92147L68.0374 8.77597C67.9502 8.85838 67.8072 8.79623 67.8072 8.67591V0.271387C67.8072 0.195528 67.746 0.134033 67.6706 0.134033H64.8483C64.7728 0.134033 64.7117 0.195528 64.7117 0.271387V16.7879C64.7117 16.8638 64.7728 16.9252 64.8483 16.9252H67.6706C67.746 16.9252 67.8072 16.8638 67.8072 16.7879V12.568C67.8072 12.5289 67.8238 12.4916 67.8528 12.4656L68.5099 11.8757C68.5691 11.8226 68.6606 11.8311 68.7092 11.8942L72.5302 16.8718Z" fill="#E96D34"/>
<path d="M81.2063 17.2346C84.1261 17.2346 85.9706 15.5555 85.9706 13.3683C85.9706 11.9542 85.2901 11.0263 83.9505 10.3193C83.007 9.83326 81.8211 9.43555 81.0751 9.14835C80.2847 8.88319 80.021 8.46343 80.021 8.04368C80.021 7.49132 80.5258 7.02734 81.3818 7.02734C82.1613 7.02734 83.1416 7.33205 84.0147 8.11676C84.0748 8.17115 84.1698 8.164 84.219 8.09931L85.5914 6.30363C85.6324 6.24974 85.6283 6.17342 85.5805 6.12542C84.4294 4.97113 82.9708 4.48657 81.47 4.48657C78.7476 4.48657 76.9912 6.01103 76.9912 8.10996C76.9912 9.50183 77.6942 10.5623 79.055 11.2251C79.7792 11.6007 81.36 12.1089 82.0185 12.4182C82.5896 12.6833 82.8752 13.0147 82.8752 13.4566C82.8752 14.1415 82.1722 14.6276 81.2281 14.6276C80.0702 14.6276 78.8712 14.0379 78.02 13.0733C77.9633 13.0092 77.8629 13.0087 77.8083 13.0743L76.3384 14.8294C76.2967 14.8791 76.2955 14.9517 76.3363 15.0021C77.5439 16.4904 79.3331 17.2346 81.2063 17.2346Z" fill="#E96D34"/>
<path d="M5.99638 8.96022C7.13279 8.96022 8.05404 8.03407 8.05404 6.89161C8.05404 5.74915 7.13279 4.823 5.99638 4.823C4.85997 4.823 3.93872 5.74915 3.93872 6.89161C3.93872 8.03407 4.85997 8.96022 5.99638 8.96022Z" fill="#E96D34"/>
<path d="M3.02825 4.90381H0.234409C0.15895 4.90381 0.0977783 4.9653 0.0977783 5.04116V16.7881C0.0977783 16.8639 0.15895 16.9254 0.234409 16.9254H3.02825C3.10371 16.9254 3.16488 16.8639 3.16488 16.7881V5.04116C3.16488 4.9653 3.10371 4.90381 3.02825 4.90381Z" fill="#E96D34"/>
<path d="M61.2108 8.96022C62.3472 8.96022 63.2685 8.03407 63.2685 6.89161C63.2685 5.74915 62.3472 4.823 61.2108 4.823C60.0744 4.823 59.1532 5.74915 59.1532 6.89161C59.1532 8.03407 60.0744 8.96022 61.2108 8.96022Z" fill="#E96D34"/>
<path d="M58.1924 4.90381H55.3986C55.3231 4.90381 55.262 4.9653 55.262 5.04116V16.7881C55.262 16.8639 55.3231 16.9254 55.3986 16.9254H58.1924C58.2679 16.9254 58.329 16.8639 58.329 16.7881V5.04116C58.329 4.9653 58.2679 4.90381 58.1924 4.90381Z" fill="#E96D34"/>
</svg>
