<svg width="1258" height="249" viewBox="0 0 1258 249" fill="none" xmlns="http://www.w3.org/2000/svg">
<path d="M302.601 152.8C302.601 97.1 264.701 64.7 214.901 64.7C160.301 64.7 123.601 104.3 123.601 156.7C123.601 203.7 153.201 248.4 218.701 248.4C250.201 248.4 276.901 237.2 293.701 225.3C294.501 224.7 294.801 223.6 294.301 222.7L278.301 194.3C277.701 193.3 276.401 193 275.401 193.6C260.601 203.3 239.201 210.1 220.701 210.1C192.001 210.1 176.301 195.3 170.301 175.3C169.901 174 170.901 172.8 172.201 172.8H299.301C300.301 172.8 301.101 172.1 301.301 171.1C302.101 165.2 302.601 159.3 302.601 152.8ZM214.901 102.3C237.201 102.3 253.301 115.5 258.101 136.6C258.401 137.8 257.401 139 256.201 139H172.101C170.801 139 169.901 137.8 170.201 136.5C176.301 115.1 192.901 102.3 214.901 102.3Z" fill="white"/>
<path d="M369.101 242.8C369.401 243.6 370.101 244.2 371.001 244.2H407.701C408.501 244.2 409.301 243.7 409.601 242.9L446.101 139.8C446.701 138 449.201 138 449.901 139.8L487.101 242.9C487.401 243.7 488.101 244.2 489.001 244.2H525.601C526.501 244.2 527.201 243.7 527.501 242.8L585.301 71.8C585.701 70.5 584.801 69.2 583.401 69.2H540.101C539.201 69.2 538.401 69.8 538.201 70.6L506.301 178.1C505.701 180 503.101 180 502.501 178.2L464.201 70.5C463.901 69.7 463.201 69.2 462.301 69.2H433.301C432.401 69.2 431.701 69.7 431.401 70.5L394.301 178.2C393.701 180 391.101 180 390.501 178.1L357.801 70.6C357.501 69.8 356.801 69.2 355.901 69.2H312.601C311.201 69.2 310.301 70.5 310.701 71.8L369.101 242.8Z" fill="white"/>
<path d="M684.801 249C740.701 249 778.601 207.8 778.601 156.7C778.601 106.2 740.701 64.4 684.801 64.4C628.901 64.4 591.001 106.2 591.001 156.7C591.001 207.8 628.901 249 684.801 249ZM684.801 206.9C657.501 206.9 636.301 184.7 636.301 156.7C636.301 129 657.501 106.8 684.801 106.8C712.101 106.8 733.301 129 733.301 156.7C733.301 184.7 712.101 206.9 684.801 206.9Z" fill="white"/>
<path d="M1060.3 243.7C1060.7 244.2 1061.3 244.5 1061.9 244.5H1112.4C1114.1 244.5 1115 242.6 1114 241.3L1035.2 142.4C1034.5 141.6 1034.6 140.4 1035.4 139.7L1108.3 72.7C1109.6 71.5 1108.8 69.2 1106.9 69.2H1055.6C1055.1 69.2 1054.6 69.4 1054.2 69.7L994.501 125.8C993.201 127 991.101 126.1 991.101 124.3V2C991.101 0.9 990.201 0 989.101 0H947.801C946.701 0 945.801 0.9 945.801 2V242.5C945.801 243.6 946.701 244.5 947.801 244.5H989.101C990.201 244.5 991.101 243.6 991.101 242.5V181.1C991.101 180.5 991.301 180 991.801 179.6L1001.4 171C1002.3 170.2 1003.6 170.4 1004.3 171.3L1060.3 243.7Z" fill="white"/>
<path d="M1187.3 249C1230 249 1257 224.6 1257 192.7C1257 172.1 1247 158.6 1227.4 148.3C1213.6 141.2 1196.2 135.4 1185.3 131.2C1173.7 127.3 1169.9 121.2 1169.9 115.1C1169.9 107.1 1177.3 100.3 1189.8 100.3C1201.2 100.3 1215.6 104.7 1228.3 116.2C1229.2 117 1230.6 116.9 1231.3 115.9L1251.4 89.8C1252 89 1251.9 87.9 1251.2 87.2C1234.4 70.4 1213 63.3 1191 63.3C1151.2 63.3 1125.4 85.5 1125.4 116.1C1125.4 136.4 1135.7 151.8 1155.6 161.5C1166.2 167 1189.3 174.4 1199 178.9C1207.4 182.8 1211.5 187.6 1211.5 194C1211.5 204 1201.2 211.1 1187.4 211.1C1170.5 211.1 1152.9 202.5 1140.4 188.5C1139.6 187.6 1138.1 187.6 1137.3 188.5L1116 214C1115.4 214.7 1115.4 215.8 1116 216.5C1133.6 238.2 1159.8 249 1187.3 249Z" fill="white"/>
<path d="M86.2999 128.5C102.924 128.5 116.4 115.024 116.4 98.4C116.4 81.7762 102.924 68.3 86.2999 68.3C69.6762 68.3 56.2 81.7762 56.2 98.4C56.2 115.024 69.6762 128.5 86.2999 128.5Z" fill="white"/>
<path d="M2 69.5H42.9C44 69.5 44.9 70.4 44.9 71.5V242.5C44.9 243.6 44 244.5 42.9 244.5H2C0.9 244.5 0 243.6 0 242.5V71.5C0 70.3 0.9 69.5 2 69.5Z" fill="white"/>
<path d="M894.6 128.5C911.224 128.5 924.7 115.024 924.7 98.4C924.7 81.7762 911.224 68.3 894.6 68.3C877.976 68.3 864.5 81.7762 864.5 98.4C864.5 115.024 877.976 128.5 894.6 128.5Z" fill="white"/>
<path d="M809.5 69.5H850.4C851.5 69.5 852.4 70.4 852.4 71.5V242.5C852.4 243.6 851.5 244.5 850.4 244.5H809.5C808.4 244.5 807.5 243.6 807.5 242.5V71.5C807.5 70.3 808.4 69.5 809.5 69.5Z" fill="white"/>
</svg>
